<svg id="visual" viewBox="0 0 960 540" width="960" height="540" xmlns="http://www.w3.org/2000/svg" xmlns:xlink="http://www.w3.org/1999/xlink" version="1.1"><rect x="0" y="0" width="960" height="540" fill="#eff2f4"></rect><defs><linearGradient id="grad1_0" x1="43.8%" y1="0%" x2="100%" y2="100%"><stop offset="14.444444444444446%" stop-color="#eff2f4" stop-opacity="1"></stop><stop offset="85.55555555555554%" stop-color="#eff2f4" stop-opacity="1"></stop></linearGradient></defs><defs><linearGradient id="grad2_0" x1="0%" y1="0%" x2="56.3%" y2="100%"><stop offset="14.444444444444446%" stop-color="#eff2f4" stop-opacity="1"></stop><stop offset="85.55555555555554%" stop-color="#eff2f4" stop-opacity="1"></stop></linearGradient></defs><g transform="translate(960, 0)"><path d="M0 351C-33.4 339.4 -66.7 327.9 -103.5 318.6C-140.3 309.3 -180.5 302.3 -201 276.7C-221.5 251.1 -222.4 207 -245.1 178.1C-267.9 149.2 -312.5 135.6 -333.8 108.5C-355.1 81.3 -353.1 40.7 -351 0L0 0Z" fill="#FBAE3C"></path></g><g transform="translate(0, 540)"><path d="M0 -351C31.8 -335 63.6 -319 101.4 -311.9C139.1 -304.9 182.7 -306.9 206.3 -284C229.9 -261 233.4 -213.1 246.8 -179.3C260.1 -145.5 283.4 -125.8 302.4 -98.3C321.5 -70.7 336.2 -35.4 351 0L0 0Z" fill="#FBAE3C"></path></g></svg>