<svg id="visual" viewBox="0 0 960 540" width="960" height="540" xmlns="http://www.w3.org/2000/svg" xmlns:xlink="http://www.w3.org/1999/xlink" version="1.1"><path d="M0 109L87 109L87 98L175 98L175 66L262 66L262 55L349 55L349 77L436 77L436 87L524 87L524 109L611 109L611 66L698 66L698 71L785 71L785 158L873 158L873 60L960 60L960 120L960 0L960 0L873 0L873 0L785 0L785 0L698 0L698 0L611 0L611 0L524 0L524 0L436 0L436 0L349 0L349 0L262 0L262 0L175 0L175 0L87 0L87 0L0 0Z" fill="#fa7268"></path><path d="M0 222L87 222L87 147L175 147L175 125L262 125L262 141L349 141L349 158L436 158L436 152L524 152L524 212L611 212L611 152L698 152L698 174L785 174L785 195L873 195L873 98L960 98L960 174L960 118L960 58L873 58L873 156L785 156L785 69L698 69L698 64L611 64L611 107L524 107L524 85L436 85L436 75L349 75L349 53L262 53L262 64L175 64L175 96L87 96L87 107L0 107Z" fill="#ea5e66"></path><path d="M0 276L87 276L87 239L175 239L175 163L262 163L262 206L349 206L349 201L436 201L436 201L524 201L524 244L611 244L611 239L698 239L698 249L785 249L785 266L873 266L873 185L960 185L960 249L960 172L960 96L873 96L873 193L785 193L785 172L698 172L698 150L611 150L611 210L524 210L524 150L436 150L436 156L349 156L349 139L262 139L262 123L175 123L175 145L87 145L87 220L0 220Z" fill="#d84a64"></path><path d="M0 363L87 363L87 438L175 438L175 314L262 314L262 428L349 428L349 390L436 390L436 282L524 282L524 433L611 433L611 411L698 411L698 379L785 379L785 374L873 374L873 428L960 428L960 411L960 247L960 183L873 183L873 264L785 264L785 247L698 247L698 237L611 237L611 242L524 242L524 199L436 199L436 199L349 199L349 204L262 204L262 161L175 161L175 237L87 237L87 274L0 274Z" fill="#c53762"></path><path d="M0 541L87 541L87 541L175 541L175 541L262 541L262 541L349 541L349 541L436 541L436 541L524 541L524 541L611 541L611 541L698 541L698 541L785 541L785 541L873 541L873 541L960 541L960 541L960 409L960 426L873 426L873 372L785 372L785 377L698 377L698 409L611 409L611 431L524 431L524 280L436 280L436 388L349 388L349 426L262 426L262 312L175 312L175 436L87 436L87 361L0 361Z" fill="#b0235f"></path></svg>