<svg id="visual" viewBox="0 0 900 300" width="900" height="300" xmlns="http://www.w3.org/2000/svg" xmlns:xlink="http://www.w3.org/1999/xlink" version="1.1"><path d="M0 196L13.7 189.2C27.3 182.3 54.7 168.7 82 161.3C109.3 154 136.7 153 163.8 159.3C191 165.7 218 179.3 245.2 185.3C272.3 191.3 299.7 189.7 327 184C354.3 178.3 381.7 168.7 409 168.7C436.3 168.7 463.7 178.3 491 179.2C518.3 180 545.7 172 573 168C600.3 164 627.7 164 654.8 164.7C682 165.3 709 166.7 736.2 172.8C763.3 179 790.7 190 818 194.5C845.3 199 872.7 197 886.3 196L900 195L900 301L886.3 301C872.7 301 845.3 301 818 301C790.7 301 763.3 301 736.2 301C709 301 682 301 654.8 301C627.7 301 600.3 301 573 301C545.7 301 518.3 301 491 301C463.7 301 436.3 301 409 301C381.7 301 354.3 301 327 301C299.7 301 272.3 301 245.2 301C218 301 191 301 163.8 301C136.7 301 109.3 301 82 301C54.7 301 27.3 301 13.7 301L0 301Z" fill="#fa7268"></path><path d="M0 220L13.7 218.7C27.3 217.3 54.7 214.7 82 208.2C109.3 201.7 136.7 191.3 163.8 192.3C191 193.3 218 205.7 245.2 206C272.3 206.3 299.7 194.7 327 191.2C354.3 187.7 381.7 192.3 409 197C436.3 201.7 463.7 206.3 491 209.5C518.3 212.7 545.7 214.3 573 213.3C600.3 212.3 627.7 208.7 654.8 208.7C682 208.7 709 212.3 736.2 215C763.3 217.7 790.7 219.3 818 214.2C845.3 209 872.7 197 886.3 191L900 185L900 301L886.3 301C872.7 301 845.3 301 818 301C790.7 301 763.3 301 736.2 301C709 301 682 301 654.8 301C627.7 301 600.3 301 573 301C545.7 301 518.3 301 491 301C463.7 301 436.3 301 409 301C381.7 301 354.3 301 327 301C299.7 301 272.3 301 245.2 301C218 301 191 301 163.8 301C136.7 301 109.3 301 82 301C54.7 301 27.3 301 13.7 301L0 301Z" fill="#ef5f67"></path><path d="M0 240L13.7 241C27.3 242 54.7 244 82 244.7C109.3 245.3 136.7 244.7 163.8 242.5C191 240.3 218 236.7 245.2 233.8C272.3 231 299.7 229 327 228.3C354.3 227.7 381.7 228.3 409 230.8C436.3 233.3 463.7 237.7 491 234.5C518.3 231.3 545.7 220.7 573 220.3C600.3 220 627.7 230 654.8 232.3C682 234.7 709 229.3 736.2 227.5C763.3 225.7 790.7 227.3 818 230.7C845.3 234 872.7 239 886.3 241.5L900 244L900 301L886.3 301C872.7 301 845.3 301 818 301C790.7 301 763.3 301 736.2 301C709 301 682 301 654.8 301C627.7 301 600.3 301 573 301C545.7 301 518.3 301 491 301C463.7 301 436.3 301 409 301C381.7 301 354.3 301 327 301C299.7 301 272.3 301 245.2 301C218 301 191 301 163.8 301C136.7 301 109.3 301 82 301C54.7 301 27.3 301 13.7 301L0 301Z" fill="#e34c67"></path><path d="M0 260L13.7 256.8C27.3 253.7 54.7 247.3 82 243.7C109.3 240 136.7 239 163.8 237.8C191 236.7 218 235.3 245.2 238.5C272.3 241.7 299.7 249.3 327 249.7C354.3 250 381.7 243 409 243.5C436.3 244 463.7 252 491 252.2C518.3 252.3 545.7 244.7 573 244.3C600.3 244 627.7 251 654.8 251.2C682 251.3 709 244.7 736.2 243.5C763.3 242.3 790.7 246.7 818 245.7C845.3 244.7 872.7 238.3 886.3 235.2L900 232L900 301L886.3 301C872.7 301 845.3 301 818 301C790.7 301 763.3 301 736.2 301C709 301 682 301 654.8 301C627.7 301 600.3 301 573 301C545.7 301 518.3 301 491 301C463.7 301 436.3 301 409 301C381.7 301 354.3 301 327 301C299.7 301 272.3 301 245.2 301C218 301 191 301 163.8 301C136.7 301 109.3 301 82 301C54.7 301 27.3 301 13.7 301L0 301Z" fill="#d53867"></path><path d="M0 278L13.7 275.5C27.3 273 54.7 268 82 267C109.3 266 136.7 269 163.8 268.2C191 267.3 218 262.7 245.2 263.8C272.3 265 299.7 272 327 273C354.3 274 381.7 269 409 268.7C436.3 268.3 463.7 272.7 491 274.2C518.3 275.7 545.7 274.3 573 271C600.3 267.7 627.7 262.3 654.8 259.7C682 257 709 257 736.2 260C763.3 263 790.7 269 818 271.5C845.3 274 872.7 273 886.3 272.5L900 272L900 301L886.3 301C872.7 301 845.3 301 818 301C790.7 301 763.3 301 736.2 301C709 301 682 301 654.8 301C627.7 301 600.3 301 573 301C545.7 301 518.3 301 491 301C463.7 301 436.3 301 409 301C381.7 301 354.3 301 327 301C299.7 301 272.3 301 245.2 301C218 301 191 301 163.8 301C136.7 301 109.3 301 82 301C54.7 301 27.3 301 13.7 301L0 301Z" fill="#c62368"></path></svg>