<svg id="visual" viewBox="0 0 900 300" width="900" height="300" xmlns="http://www.w3.org/2000/svg" xmlns:xlink="http://www.w3.org/1999/xlink" version="1.1"><path d="M0 193L15 197C30 201 60 209 90 205.8C120 202.7 150 188.3 180 181.7C210 175 240 176 270 179.5C300 183 330 189 360 192.8C390 196.7 420 198.3 450 200C480 201.7 510 203.3 540 199.7C570 196 600 187 630 184C660 181 690 184 720 190.5C750 197 780 207 810 209.7C840 212.3 870 207.7 885 205.3L900 203L900 301L885 301C870 301 840 301 810 301C780 301 750 301 720 301C690 301 660 301 630 301C600 301 570 301 540 301C510 301 480 301 450 301C420 301 390 301 360 301C330 301 300 301 270 301C240 301 210 301 180 301C150 301 120 301 90 301C60 301 30 301 15 301L0 301Z" fill="#0275d8"></path><path d="M0 205L15 206.3C30 207.7 60 210.3 90 211.7C120 213 150 213 180 210.7C210 208.3 240 203.7 270 200.5C300 197.3 330 195.7 360 200.3C390 205 420 216 450 221.2C480 226.3 510 225.7 540 221.3C570 217 600 209 630 207.8C660 206.7 690 212.3 720 216C750 219.7 780 221.3 810 222.7C840 224 870 225 885 225.5L900 226L900 301L885 301C870 301 840 301 810 301C780 301 750 301 720 301C690 301 660 301 630 301C600 301 570 301 540 301C510 301 480 301 450 301C420 301 390 301 360 301C330 301 300 301 270 301C240 301 210 301 180 301C150 301 120 301 90 301C60 301 30 301 15 301L0 301Z" fill="#147cda"></path><path d="M0 230L15 230.8C30 231.7 60 233.3 90 233.5C120 233.7 150 232.3 180 231.2C210 230 240 229 270 228.5C300 228 330 228 360 227.2C390 226.3 420 224.7 450 227C480 229.3 510 235.7 540 234C570 232.3 600 222.7 630 217.7C660 212.7 690 212.3 720 217C750 221.7 780 231.3 810 235.5C840 239.7 870 238.3 885 237.7L900 237L900 301L885 301C870 301 840 301 810 301C780 301 750 301 720 301C690 301 660 301 630 301C600 301 570 301 540 301C510 301 480 301 450 301C420 301 390 301 360 301C330 301 300 301 270 301C240 301 210 301 180 301C150 301 120 301 90 301C60 301 30 301 15 301L0 301Z" fill="#2283db"></path><path d="M0 248L15 246.2C30 244.3 60 240.7 90 242.8C120 245 150 253 180 253.8C210 254.7 240 248.3 270 247.8C300 247.3 330 252.7 360 253.2C390 253.7 420 249.3 450 246.3C480 243.3 510 241.7 540 241.5C570 241.3 600 242.7 630 243.2C660 243.7 690 243.3 720 245.8C750 248.3 780 253.7 810 251.8C840 250 870 241 885 236.5L900 232L900 301L885 301C870 301 840 301 810 301C780 301 750 301 720 301C690 301 660 301 630 301C600 301 570 301 540 301C510 301 480 301 450 301C420 301 390 301 360 301C330 301 300 301 270 301C240 301 210 301 180 301C150 301 120 301 90 301C60 301 30 301 15 301L0 301Z" fill="#2e89dd"></path><path d="M0 250L15 251.7C30 253.3 60 256.7 90 260.5C120 264.3 150 268.7 180 268C210 267.3 240 261.7 270 259.7C300 257.7 330 259.3 360 260.8C390 262.3 420 263.7 450 265.2C480 266.7 510 268.3 540 268.3C570 268.3 600 266.7 630 267C660 267.3 690 269.7 720 267.7C750 265.7 780 259.3 810 258.5C840 257.7 870 262.3 885 264.7L900 267L900 301L885 301C870 301 840 301 810 301C780 301 750 301 720 301C690 301 660 301 630 301C600 301 570 301 540 301C510 301 480 301 450 301C420 301 390 301 360 301C330 301 300 301 270 301C240 301 210 301 180 301C150 301 120 301 90 301C60 301 30 301 15 301L0 301Z" fill="#3a90de"></path><path d="M0 274L15 275.2C30 276.3 60 278.7 90 280.2C120 281.7 150 282.3 180 280.2C210 278 240 273 270 271.2C300 269.3 330 270.7 360 270.8C390 271 420 270 450 269.8C480 269.7 510 270.3 540 272.5C570 274.7 600 278.3 630 278.3C660 278.3 690 274.7 720 273.7C750 272.7 780 274.3 810 275.3C840 276.3 870 276.7 885 276.8L900 277L900 301L885 301C870 301 840 301 810 301C780 301 750 301 720 301C690 301 660 301 630 301C600 301 570 301 540 301C510 301 480 301 450 301C420 301 390 301 360 301C330 301 300 301 270 301C240 301 210 301 180 301C150 301 120 301 90 301C60 301 30 301 15 301L0 301Z" fill="#4597df"></path></svg>